<svg version="1.1" id="Layer_1" xmlns="http://www.w3.org/2000/svg" xmlns:xlink="http://www.w3.org/1999/xlink" x="0px" y="0px"
	 width="100%" viewBox="0 0 900 900" enable-background="new 0 0 900 900" xml:space="preserve">
<path fill="#0D141E" opacity="1.000000" stroke="none" 
	d="
M393.000000,901.000000 
	C262.000000,901.000000 131.500000,901.000000 1.000000,901.000000 
	C1.000000,601.000000 1.000000,301.000000 1.000000,1.000000 
	C301.000000,1.000000 601.000000,1.000000 901.000000,1.000000 
	C901.000000,301.000000 901.000000,601.000000 901.000000,901.000000 
	C731.833313,901.000000 562.666687,901.000000 393.000000,901.000000 
M445.912842,597.896301 
	C445.856659,597.605286 445.800476,597.314209 445.448090,596.362244 
	C445.549377,595.901306 445.650665,595.440308 446.379944,594.599915 
	C446.586639,593.322937 446.973907,592.045959 446.974274,590.768921 
	C447.002502,497.677765 447.005829,404.586609 446.948151,311.495483 
	C446.947205,310.002716 446.168335,308.510406 445.452057,306.360077 
	C445.547394,305.897919 445.642761,305.435791 446.080383,304.870331 
	C445.900574,304.585663 445.720764,304.300995 445.000793,303.416504 
	C442.795288,302.608276 440.595825,301.117859 438.383301,301.098175 
	C418.076141,300.917572 397.766724,300.985626 377.457947,300.995880 
	C370.992432,300.999115 370.323486,301.662476 370.320984,308.150696 
	C370.309937,336.449799 370.332397,364.748932 370.303467,393.048004 
	C370.296997,399.363129 370.131744,405.678162 369.572815,412.253723 
	C369.374237,412.545135 369.175659,412.836548 368.077240,413.401642 
	C363.603271,413.414307 359.129211,413.455078 354.655396,413.434845 
	C335.445007,413.348053 316.234680,413.243286 296.869232,412.795990 
	C296.583252,412.842743 296.297272,412.889496 295.297699,412.478333 
	C295.276855,377.487396 295.201324,342.496307 295.300201,307.505707 
	C295.313477,302.812286 293.622101,300.917389 288.907654,300.943237 
	C268.246521,301.056702 247.584351,300.980194 226.922592,300.999329 
	C221.085480,301.004730 220.413315,301.694458 220.412735,307.709900 
	C220.403458,403.187286 220.403702,498.664703 220.411697,594.142090 
	C220.412216,600.422852 221.000748,600.999695 227.271561,601.003479 
	C247.600082,601.015930 267.928619,601.015503 288.257141,601.003357 
	C294.401398,600.999695 295.229828,600.184570 295.231476,594.146851 
	C295.240509,560.821411 295.225037,527.495972 295.269775,494.170532 
	C295.272064,492.467957 295.753143,490.765991 296.255524,489.352783 
	C296.511627,489.186829 296.767731,489.020874 297.928070,488.599030 
	C305.384949,488.586121 312.842041,488.533081 320.298706,488.568573 
	C336.524902,488.645813 352.750916,488.768158 369.211700,489.352539 
	C369.487671,489.570618 369.763611,489.788666 370.280426,490.916321 
	C370.292297,525.019775 370.302368,559.123169 370.317566,593.226624 
	C370.320831,600.506592 370.797943,601.003662 377.824799,601.005859 
	C397.954254,601.012146 418.084900,601.111694 438.211548,600.874573 
	C440.672150,600.845581 443.111237,598.989319 445.912842,597.896301 
M482.909302,595.157959 
	C482.406311,600.896362 486.127747,601.043457 490.343445,601.040649 
	C560.336914,600.994202 630.330383,601.009338 700.323853,601.005127 
	C707.483765,601.004700 707.897217,600.581177 707.897461,593.284424 
	C707.900696,498.459961 707.900635,403.635468 707.897705,308.811005 
	C707.897461,301.305969 707.575806,300.993958 699.916077,300.993683 
	C630.255920,300.991150 560.595764,300.991180 490.935577,300.993561 
	C483.111877,300.993835 482.908203,301.205139 482.908081,309.252075 
	C482.906616,404.243195 482.907379,499.234344 482.909302,595.157959 
z"/>
<path fill="#00EA64" opacity="1.000000" stroke="none" 
	d="
M482.908447,594.691711 
	C482.907379,499.234344 482.906616,404.243195 482.908081,309.252075 
	C482.908203,301.205139 483.111877,300.993835 490.935577,300.993561 
	C560.595764,300.991180 630.255920,300.991150 699.916077,300.993683 
	C707.575806,300.993958 707.897461,301.305969 707.897705,308.811005 
	C707.900635,403.635468 707.900696,498.459961 707.897461,593.284424 
	C707.897217,600.581177 707.483765,601.004700 700.323853,601.005127 
	C630.330383,601.009338 560.336914,600.994202 490.343445,601.040649 
	C486.127747,601.043457 482.406311,600.896362 482.908447,594.691711 
z"/>
<path fill="#FFFFFF" opacity="1.000000" stroke="none" 
	d="
M296.011322,489.063751 
	C295.753143,490.765991 295.272064,492.467957 295.269775,494.170532 
	C295.225037,527.495972 295.240509,560.821411 295.231476,594.146851 
	C295.229828,600.184570 294.401398,600.999695 288.257141,601.003357 
	C267.928619,601.015503 247.600082,601.015930 227.271561,601.003479 
	C221.000748,600.999695 220.412216,600.422852 220.411697,594.142090 
	C220.403702,498.664703 220.403458,403.187286 220.412735,307.709900 
	C220.413315,301.694458 221.085480,301.004730 226.922592,300.999329 
	C247.584351,300.980194 268.246521,301.056702 288.907654,300.943237 
	C293.622101,300.917389 295.313477,302.812286 295.300201,307.505707 
	C295.201324,342.496307 295.276855,377.487396 295.878113,412.903320 
	C296.647125,413.267242 296.835724,413.206146 297.024353,413.145081 
	C316.234680,413.243286 335.445007,413.348053 354.655396,413.434845 
	C359.129211,413.455078 363.603271,413.414307 368.870453,413.294067 
	C369.788971,412.788727 369.914276,412.390991 370.039612,411.993225 
	C370.131744,405.678162 370.296997,399.363129 370.303467,393.048004 
	C370.332397,364.748932 370.309937,336.449799 370.320984,308.150696 
	C370.323486,301.662476 370.992432,300.999115 377.457947,300.995880 
	C397.766724,300.985626 418.076141,300.917572 438.383301,301.098175 
	C440.595825,301.117859 442.795288,302.608276 445.237793,303.972717 
	C445.562561,304.677124 445.650330,304.825378 445.738098,304.973633 
	C445.642761,305.435791 445.547394,305.897919 445.469849,307.139008 
	C445.475342,402.619354 445.462128,497.320801 445.463287,592.022217 
	C445.463318,593.007935 445.651581,593.993652 445.751953,594.979370 
	C445.650665,595.440308 445.549377,595.901306 445.469055,596.916260 
	C445.513489,597.640198 445.536896,597.809998 445.560272,597.979858 
	C443.111237,598.989319 440.672150,600.845581 438.211548,600.874573 
	C418.084900,601.111694 397.954254,601.012146 377.824799,601.005859 
	C370.797943,601.003662 370.320831,600.506592 370.317566,593.226624 
	C370.302368,559.123169 370.292297,525.019775 370.203735,490.119812 
	C369.743713,489.172852 369.360352,489.022430 368.976990,488.872070 
	C352.750916,488.768158 336.524902,488.645813 320.298706,488.568573 
	C312.842041,488.533081 305.384949,488.586121 297.193176,488.635406 
	C296.309296,488.802429 296.160309,488.933105 296.011322,489.063751 
z"/>
<path fill="#000711" opacity="1.000000" stroke="none" 
	d="
M446.065979,594.789673 
	C445.651581,593.993652 445.463318,593.007935 445.463287,592.022217 
	C445.462128,497.320801 445.475342,402.619354 445.620056,307.467896 
	C446.168335,308.510406 446.947205,310.002716 446.948151,311.495483 
	C447.005829,404.586609 447.002502,497.677765 446.974274,590.768921 
	C446.973907,592.045959 446.586639,593.322937 446.065979,594.789673 
z"/>
<path fill="#000711" opacity="1.000000" stroke="none" 
	d="
M445.909241,304.921997 
	C445.650330,304.825378 445.562561,304.677124 445.507874,304.272614 
	C445.720764,304.300995 445.900574,304.585663 445.909241,304.921997 
z"/>
<path fill="#000711" opacity="1.000000" stroke="none" 
	d="
M445.736572,597.938110 
	C445.536896,597.809998 445.513489,597.640198 445.617188,597.246765 
	C445.800476,597.314209 445.856659,597.605286 445.736572,597.938110 
z"/>
<path fill="#000711" opacity="1.000000" stroke="none" 
	d="
M296.946777,412.970520 
	C296.835724,413.206146 296.647125,413.267242 296.234924,413.132263 
	C296.297272,412.889496 296.583252,412.842743 296.946777,412.970520 
z"/>
<path fill="#000711" opacity="1.000000" stroke="none" 
	d="
M369.806213,412.123474 
	C369.914276,412.390991 369.788971,412.788727 369.320374,413.157227 
	C369.175659,412.836548 369.374237,412.545135 369.806213,412.123474 
z"/>
<path fill="#000711" opacity="1.000000" stroke="none" 
	d="
M296.133423,489.208252 
	C296.160309,488.933105 296.309296,488.802429 296.741058,488.763367 
	C296.767731,489.020874 296.511627,489.186829 296.133423,489.208252 
z"/>
<path fill="#000711" opacity="1.000000" stroke="none" 
	d="
M369.094360,489.112305 
	C369.360352,489.022430 369.743713,489.172852 370.083313,489.665009 
	C369.763611,489.788666 369.487671,489.570618 369.094360,489.112305 
z"/>
</svg>